<?xml version="1.0" encoding="utf-8"?>
<!-- Generator: Adobe Illustrator 21.1.0, SVG Export Plug-In . SVG Version: 6.00 Build 0)  -->
<svg version="1.1" id="Layer_1" xmlns="http://www.w3.org/2000/svg" xmlns:xlink="http://www.w3.org/1999/xlink" x="0px" y="0px"
	 viewBox="0 0 651.1 580.3" style="enable-background:new 0 0 651.1 580.3;" xml:space="preserve">
<style type="text/css">
	.st0{fill:#F7F9F9;}
</style>
<g id="LEZ9so.tif">
	<g>
		<path class="st0" d="M451.2,0c3.2,0,6.4,0,9.6,0c0.6,0.9,1.5,0.8,2.3,0.9c20.1,1.6,35,11.4,45.2,28.6
			c10.2,17.2,13.9,36.3,15.1,55.8c1.7,27.8-1,55.4-6.5,82.7c-0.8,4.1-3.6,8.8-1.8,12.2c1.9,3.7,7.6,3.5,11.6,4.9
			c34.2,11.9,67.1,26.4,94.7,50.7c13.9,12.2,24.8,26.5,28.6,45.2c0.1,0.7,0.2,1.5,1,1.8c0,4.9,0,9.9,0,14.8c-1.2,0.7-1,2.1-1.2,3.1
			c-2,9.5-6.2,18.1-11.8,26c-9.6,13.4-22,24-35.6,33.1c-25.6,17.2-53.7,29-82.9,38.2c-3.8,1.2-4.6,2.5-3.7,6.3
			c7.3,32.8,11.3,65.9,7.7,99.5c-1.7,15.7-5.2,31-13,44.9c-11.2,20.2-28.2,30.7-51.4,30.8c-20,0.1-38.2-6.5-55.9-15.1
			c-27.5-13.5-51.5-32-74.1-52.6c-2.5-2.3-3.9-2.4-6.4,0c-18,16.9-37.3,32-58.5,44.6C245,568,224.8,577.2,202,579.8
			c-27.5,3.1-49.3-8.3-61.6-32.9c-13.8-27.6-14.1-57.2-12.5-87c1-19.2,4.3-38.1,8.5-56.8c0.6-2.7-0.2-3.5-2.6-4.3
			c-8.1-2.7-16.3-5.4-24.3-8.4c-27.9-10.6-54.5-23.6-77.3-43.1c-12.9-11-23.7-23.6-29.1-40.1c-1.2-3.7-2-7.5-3-11.2
			c0-3.8,0-7.6,0-11.3c0.7-0.4,0.8-1.2,0.9-1.9c1.8-11.3,6.8-21.3,13.6-30.3c10.3-13.8,23.6-24.4,38-33.7
			c24.5-15.7,51.1-26.9,78.8-35.6c3.8-1.2,5.2-2.3,4.2-6.9c-6.2-28-10-56.4-8.8-85.2c0.7-16,3-31.8,8.6-47
			c10.8-29.2,32-44.3,61.1-43c15.6,0.7,30.3,5.3,44.4,11.7C271,26.4,297.1,46,321.4,68.1c3.2,3,5,2.9,8.1-0.1
			c11.2-10.8,23.3-20.6,36-29.6c21.6-15.3,44.2-28.5,70.2-35.1C440.8,2,446.2,2,451.2,0z M325.1,396.3c18.6,0.5,37.2-0.7,55.8-1.9
			c2.9-0.2,5.1-0.9,6.9-3.6c21-31,39.6-63.3,55.6-97.2c1.2-2.5,1.1-4.6-0.2-7c-3.3-6.3-6.3-12.8-9.5-19.1
			c-13.7-26.9-29.3-52.6-46.3-77.4c-1.2-1.7-2.3-3.1-4.7-3.3c-19.4-1.5-38.9-2.3-58.4-2.2c-18.1,0-36.3,0.7-54.4,2.2
			c-2.9,0.2-4.8,1.2-6.4,3.6c-21,31-39.7,63.3-55.7,97.1c-1.2,2.5-1.1,4.5,0.1,7c16.2,33.8,34.9,66,56.1,96.9c1.4,2,2.8,3,5.3,3.1
			C287.9,395.5,306.5,396.8,325.1,396.3z M621.5,290.6c-0.1-6-2.2-11.3-5.3-16.3c-5.4-8.6-12.6-15.6-20.6-21.8
			c-25.7-19.8-55.2-32-85.8-41.9c-2.6-0.8-3.2,0.3-3.9,2.5c-7.5,25.4-16.6,50.2-27.4,74.4c-0.9,1.9-0.7,3.5,0.1,5.4
			c10.7,24.4,20.1,49.2,27.7,74.8c0.7,2.4,1.6,3.2,4.2,2.3c24.9-8.2,49.2-17.9,71.4-32.1c12.7-8.1,24.6-17.2,33.2-29.8
			C618.7,302.8,621.3,297.2,621.5,290.6z M494.8,98.5c-0.4-5-0.7-13.4-1.8-21.8c-1.5-12-4.4-23.7-11.1-34.1
			c-5-7.8-12.2-11.6-21.5-12.1c-14.4-0.8-27.5,3.7-40.3,9.6c-26.4,12.3-49,30-70.5,49.3c-2.7,2.5-2.5,3.9-0.3,6.2
			c18.3,19,34.8,39.4,50.4,60.7c1.1,1.5,2.2,2.4,4.2,2.7c26.3,2.9,52.4,7.1,78.1,13.4c3.2,0.8,4-0.2,4.6-3
			C491.4,147.1,494.4,124.6,494.8,98.5z M142.3,210.4c-0.6,0.2-1.2,0.4-1.7,0.6c-23.8,7.6-46.8,16.8-68.1,29.9
			C58.6,249.6,45.4,259,36,272.9c-8.3,12.3-8.3,22.9,0.1,35.2c5.5,8.2,12.6,14.9,20.4,20.8c25.6,19.5,54.8,31.5,85,41.4
			c2.8,0.9,3.2-0.5,3.8-2.5c7.5-25.4,16.7-50.2,27.3-74.4c0.8-1.9,0.8-3.5,0-5.3c-2.9-6.5-5.7-13.1-8.4-19.7
			c-7.2-17.8-13.6-35.9-19.1-54.2C144.6,212.6,144.8,210.4,142.3,210.4z M157.1,478.1c0,5.4-0.3,10.8,0.1,16.1
			c1,13.2,3.1,26.3,8.9,38.4c5.9,12.5,15.6,18.7,29.6,18c5.5-0.3,11-1.1,16.3-2.7c35.7-11,64.1-33.5,91.2-58
			c1.6-1.5,0.8-2.3-0.3-3.5c-18.4-19.4-35.5-40.1-51.2-61.7c-1.4-1.9-3.1-2.9-5.4-3.1c-25.7-2.7-51.2-6.9-76.4-13
			c-3.1-0.8-4.7-0.2-5.4,3.3C160.1,433.9,156.6,455.8,157.1,478.1z M495,482.8c0-26.5-3.1-48.3-7.8-69.9c-1.2-5.4-1.2-5.4-6.7-4.1
			c-24,5.9-48.3,9.9-72.9,12.5c-4.4,0.5-7,2.1-9.5,5.5c-14.9,20.5-30.9,40-48.4,58.3c-2.3,2.4-2.3,3.6,0.2,5.8
			c16.2,14.5,33.1,28,51.7,39.1c15.3,9.1,31.2,16.7,49.1,19.5c17.8,2.8,29.2-3.2,36.2-19.8c1.1-2.5,2-5.1,2.8-7.8
			C493.9,507.8,495.2,493.2,495,482.8z M156.2,100.2c0,24.9,3.5,47.2,8.2,69.4c0.6,2.6,1.5,3.6,4.4,2.9
			c25.1-6.2,50.6-10.4,76.3-13.3c3.7-0.4,5.6-2.1,7.6-4.8c14.9-20.6,31.2-40.2,48.7-58.7c2.7-2.8,2.1-4.2-0.4-6.4
			c-14.3-12.6-29-24.7-45.2-34.9c-17.6-11.1-35.7-20.9-56.8-23.3c-17.1-2-26.3,3.2-33.2,17.2c-0.7,1.4-1.4,2.9-1.9,4.4
			C157.5,68.6,156.3,85.3,156.2,100.2z M361,155.1c-0.3-0.7-0.4-1.2-0.8-1.6c-10.5-13.2-21.4-26-33.1-38.2c-2.1-2.2-3.1-0.7-4.4,0.7
			c-10.6,11.3-20.8,23.1-30.4,35.3c-0.8,1.1-2.7,2.1-2,3.5c0.7,1.5,2.6,0.6,4,0.6c13.1,0.2,26.1-0.8,39.2-0.4
			C342.5,155.3,351.6,155.1,361,155.1z M289.9,425.1c0.4,1.1,0.4,1.4,0.5,1.6c10.4,13.5,21.7,26.1,33.2,38.6c1.8,2,2.9,1.5,4.5-0.2
			c8.8-9.1,17-18.7,25-28.4c3-3.6,5.7-7.3,9.1-11.7C337.5,426.4,313.9,426.2,289.9,425.1z M424.2,389.1c1.5,0,2.1,0.1,2.7,0
			c14.9-2.5,29.7-5.1,44.4-8.5c7.4-1.7,7.5-1.7,5.3-9c-4.6-15.1-9.8-30-16.2-45.5C449.2,347.9,437.4,368.5,424.2,389.1z
			 M190.6,253.8c0.5-0.5,1-0.7,1.1-1c10.4-19.7,21.1-39.1,33.2-57.9c0.5-0.7,1.3-1.5,0.7-2.4c-0.6-1.1-1.9-0.6-2.8-0.4
			c-15.9,2.5-31.8,5.5-47.5,9.1c-2.2,0.5-2.9,1.3-2.1,3.6c2.3,6.9,4.2,13.9,6.6,20.8C183.2,235,186.4,244.5,190.6,253.8z
			 M227.1,389.3c-13.1-20.6-25.2-40.8-36.3-62.7c-6.8,17.1-12.4,33.4-17.3,50c-0.7,2.4,0.6,2.7,2.3,3.1c4.7,1,9.3,2.1,14,3.1
			C201.9,385.3,214,387.5,227.1,389.3z M460,253.5c0.5-0.4,0.8-0.5,0.9-0.7c6.3-15.9,11.8-32.1,16.7-48.5c0.9-2.9-1.2-2.8-2.7-3.2
			c-15.1-3.5-30.4-6.4-45.7-8.9c-1.3-0.2-2.9-0.8-3.7,0.3c-0.9,1.2,0.5,2.4,1.2,3.4c7.5,11.8,14.7,23.7,21.5,35.8
			C452.3,238.9,456.1,246.2,460,253.5z"/>
		<path class="st0" d="M385.9,291c-0.1,33.6-27.2,60.2-61.2,60c-33.3-0.2-59.8-27.4-59.6-61.1c0.2-33.4,27.4-60.4,60.7-60.2
			C359.4,229.9,386.1,257.1,385.9,291z"/>
	</g>
</g>
</svg>
